# xmcd
#
# Track frame offsets:
#	150
#	13267
#	37615
#	53689
#	69501
#	83979
#	102346
#	120498
#	132402
#	153596
#	172206
#	191096
#	209122
#	223855
#
# Disc length: 3154 seconds
#
# Revision: 0
# Processed by: cddbd v1.5.2PL0 Copyright (c) Steve Scherf et al.
# Submitted via: dBpowerAMP V4.0
#
DISCID=d00c500e
DTITLE=Westside Andy/Mel Ford Band - Alley Cat
DYEAR=2007
DGENRE=
TTITLE0=Alley Cat
TTITLE1=Can't Be True
TTITLE2=Around The Next Corner
TTITLE3=That Girl's All Woman
TTITLE4=Freshness Date
TTITLE5=She's Hot
TTITLE6=Call It Love
TTITLE7=Gamblin' Woman
TTITLE8=On A Roll
TTITLE9=Jobless Recovery
TTITLE10=Party Girl
TTITLE11=Back Roads
TTITLE12=Love Will Find A Way
TTITLE13=Molly's Rag
EXTD=
EXTT0=
EXTT1=
EXTT2=
EXTT3=
EXTT4=
EXTT5=
EXTT6=
EXTT7=
EXTT8=
EXTT9=
EXTT10=
EXTT11=
EXTT12=
EXTT13=
PLAYORDER=
